<svg xmlns="http://www.w3.org/2000/svg" fill="none" viewBox="0 0 552 558">
  <g filter="url(#a)">
    <path fill="url(#b)" d="M535.122 113.433c-2.703-32.449-8.196-59.14-20.383-75.242h-.053c-15.53-14.357-43.716-20.22-77.777-22.945-50.495-4.97-107.09-6.651-166.047-6.747l.074 541.017c62.662-1.543 119.459-1.501 165.494-5.428 37.851-2.724 64.397-14.218 78.234-27.829 10.879-13.633 17.393-36.11 20.458-69.676 3.885-43.73 4.609-105.413 6.387-166.575-1.373-60.045-2.81-118.152-6.387-166.575Z"/>
  </g>
  <g filter="url(#c)">
    <path fill="url(#d)" d="M104.41 544.115c48.584 4.632 94.938 4.232 162.368 5.338 2.235.036 4.083-1.765 4.083-4.002l-.073-532.957a3.998 3.998 0 0 0-3.992-3.998c-55.87-.07-109.945 1.238-161.929 7.32-38.553 3.166-64.5 9.556-79.825 22.36a3.67 3.67 0 0 0-.663.723C13.701 54.243 9.505 78.24 6.835 113.78 2.822 159.222 2.685 220.022.417 280.343c1.511 60.64 2.395 120.993 6.386 165.532 3.17 38.287 6.519 54.78 17.845 70.157.165.224.353.429.563.612 15.587 13.584 40.797 24.807 79.199 27.471Z"/>
  </g>
  <path fill="color(display-p3 .2549 .4118 .8824)" d="M223.2 97.067H91.211a4 4 0 0 1 0-8H223.2a4 4 0 0 1 0 8Z"/>
  <path stroke="color(display-p3 .1333 .2667 .4)" d="M489.834 86.312h-38.38a4 4 0 0 1 0-8h38.38a4 4 0 0 1 0 8Z"/>
  <path fill="color(display-p3 .1333 .2667 .4)" fill-opacity=".8" d="M489.834 110.855H317.055a4 4 0 0 1 0-8h172.779a4 4 0 0 1 0 8Zm-12.961 13.788H317.055a4 4 0 1 1 0-8h159.818a4 4 0 0 1 0 8Zm-29.384 14H317.055a4 4 0 1 1 0-8h130.434a4 4 0 0 1 0 8Zm-86.816 14h-43.618a4 4 0 1 1 0-8h43.618a4 4 0 1 1 0 8Z"/>
  <path fill="color(display-p3 .1333 .2667 .4)" fill-opacity=".18" d="M491.834 345.14H317.055a2 2 0 1 1 0-4h174.779a2 2 0 0 1 0 4Zm-42.345 6.394H317.055a2 2 0 1 0 0 4h132.434a2 2 0 0 0 0-4Zm42.345.394h-23.731a2 2 0 0 0 0 4h23.731a2 2 0 0 0 0-4ZM319.662 330.75h24.69a4.607 4.607 0 0 0 0-9.215h-24.69a4.607 4.607 0 1 0 0 9.215Z"/>
  <path stroke="color(display-p3 .1333 .2667 .4)" stroke-opacity=".18" d="M489.226 330.75h-.676a4.608 4.608 0 1 1 0-9.215h.676a4.608 4.608 0 1 1 0 9.215Z"/>
  <path stroke="color(display-p3 .1333 .2667 .4)" stroke-opacity=".6" d="M318.99 186.413h7.993a3.935 3.935 0 0 0 0-7.871h-7.993a3.936 3.936 0 0 0 0 7.871Z"/>
  <path fill="color(display-p3 .1333 .2667 .4)" fill-opacity=".6" d="M380.913 199.771h-65.022a1.968 1.968 0 0 1 0-3.936h65.022a1.968 1.968 0 1 1 0 3.936Zm-10.864 9.838h-54.027a1.967 1.967 0 1 1 0-3.935h54.027a1.968 1.968 0 1 1 0 3.935Zm3.863 9.839h-57.89a1.968 1.968 0 0 1 0-3.935h57.89a1.968 1.968 0 1 1 0 3.935Zm12.076 10.823h-69.966a1.968 1.968 0 0 1 0-3.936h69.966a1.968 1.968 0 1 1 0 3.936Z"/>
  <path stroke="color(display-p3 .1333 .2667 .4)" stroke-opacity=".6" d="M418.345 185.487h-5.09a3.936 3.936 0 0 1 0-7.871h5.09a3.936 3.936 0 1 1 0 7.871Z"/>
  <path fill="color(display-p3 .1333 .2667 .4)" fill-opacity=".6" d="M469.954 199.771h-57.649a1.968 1.968 0 1 1 0-3.936h57.649a1.968 1.968 0 0 1 0 3.936Zm14.173 19.677h-72.839a1.968 1.968 0 1 1 0-3.935h72.839a1.968 1.968 0 1 1 0 3.935Zm7.739-9.839h-80.578a1.967 1.967 0 1 1 0-3.935h80.578a1.968 1.968 0 1 1 0 3.935Zm0 19.47h-80.578a1.968 1.968 0 1 1 0-3.936h80.578a1.968 1.968 0 1 1 0 3.936Z"/>
  <path fill="color(display-p3 .2549 .4118 .8824)" d="M203.177 110.855H91.211a4 4 0 0 1 0-8h111.966a4 4 0 0 1 0 8Z"/>
  <path fill="color(display-p3 1 .1984 .3587)" d="M182.558 124.643h-82.315a4 4 0 1 1 0-8h82.315a4 4 0 0 1 0 8Z"/>
  <path fill="color(display-p3 .2353 .702 .4431)" d="M182.558 138.432h-64.252a4 4 0 1 1 0-8h64.252a4 4 0 0 1 0 8Z"/>
  <path fill="color(display-p3 .2549 .4118 .8824)" d="M164.495 152.22H91.211a4 4 0 0 1 0-8h73.284a4 4 0 0 1 0 8Z"/>
  <path fill="color(display-p3 .2353 .702 .4431)" d="M191.589 166.008H91.211a4 4 0 0 1 0-8h100.378a4 4 0 0 1 0 8Z"/>
  <path fill="color(display-p3 .2549 .4118 .8824)" d="M191.589 179.797h-91.346a4 4 0 1 1 0-8h91.346a4 4 0 1 1 0 8Z"/>
  <path fill="color(display-p3 1 .8431 0)" d="M166.753 193.585h-32.642a4 4 0 0 1 0-8h32.642a4 4 0 0 1 0 8Z"/>
  <path fill="color(display-p3 .2353 .702 .4431)" d="M218.684 193.585h-39.416a4 4 0 0 1 0-8h39.416a4 4 0 0 1 0 8Z"/>
  <path fill="color(display-p3 .2549 .4118 .8824)" d="M121.595 193.585h-12.321a4 4 0 0 1 0-8h12.321a4 4 0 0 1 0 8Z"/>
  <path fill="color(display-p3 1 .1984 .3587)" d="M218.684 207.373H118.306a4 4 0 1 1 0-8h100.378a4 4 0 0 1 0 8Z"/>
  <path stroke="color(display-p3 1 .1984 .3587)" stroke-width=".25" d="M182.97 126.819H70.222a6 6 0 1 1 0-12H182.97a6 6 0 0 1 0 12Zm36.126 82.554H70.222a6 6 0 1 1 0-12h148.874a6 6 0 0 1 0 12Z"/>
  <path fill="color(display-p3 .2549 .4118 .8824)" d="M173.526 221.161h-55.22a4 4 0 1 1 0-8h55.22a4 4 0 0 1 0 8Z"/>
  <path fill="color(display-p3 .2353 .702 .4431)" d="M150.758 234.949h-5.548a4 4 0 1 1 0-8h5.548a4 4 0 0 1 0 8Z"/>
  <path fill="color(display-p3 1 .8431 0)" d="M218.684 221.161h-32.832a4 4 0 1 1 0-8h32.832a4 4 0 0 1 0 8Z"/>
  <path fill="color(display-p3 .2549 .4118 .8824)" d="M132.695 234.95h-23.421a4 4 0 0 1 0-8h23.421a4 4 0 0 1 0 8Zm76.767 0h-46.189a4 4 0 0 1 0-8h46.189a4 4 0 1 1 0 8Z"/>
  <path fill="color(display-p3 1 .1984 .3587)" d="M137.21 248.738h-36.967a4 4 0 1 1 0-8h36.967a4 4 0 0 1 0 8Z"/>
  <path fill="color(display-p3 .2353 .702 .4431)" d="M209.462 248.738h-59.736a4 4 0 0 1 0-8h59.736a4 4 0 1 1 0 8Z"/>
  <path fill="color(display-p3 1 .8431 0)" d="M164.495 262.526h-64.252a4 4 0 1 1 0-8h64.252a4 4 0 0 1 0 8Z"/>
  <path fill="color(display-p3 .2353 .702 .4431)" d="M209.652 276.314H109.274a4 4 0 1 1 0-8h100.378a4 4 0 0 1 0 8Z"/>
  <path fill="color(display-p3 .2549 .4118 .8824)" d="M182.558 290.103h-82.315a4 4 0 1 1 0-8h82.315a4 4 0 0 1 0 8Z"/>
  <path fill="color(display-p3 .2353 .702 .4431)" d="M123.853 303.891H91.211a4 4 0 0 1 0-8h32.642a4 4 0 0 1 0 8Z"/>
  <path fill="color(display-p3 1 .1984 .3587)" d="M105.79 138.432h-5.547a4 4 0 1 1 0-8h5.547a4 4 0 0 1 0 8Zm75.639 179.744H99.114a4 4 0 0 1 0-8h82.315a4 4 0 1 1 0 8Z"/>
  <path fill="color(display-p3 .2353 .702 .4431)" d="M163.366 331.964h-63.123a4 4 0 1 1 0-8h63.123a4 4 0 0 1 0 8Z"/>
  <path fill="color(display-p3 .2549 .4118 .8824)" d="M163.366 345.752H90.082a4 4 0 0 1 0-8h73.284a4 4 0 0 1 0 8Zm-54.189 13.788H90.082a4 4 0 0 1 0-8h19.095a4 4 0 0 1 0 8ZM73.317 95.036a.281.281 0 0 1-.078.198.242.242 0 0 1-.186.078h-.168a.281.281 0 0 1-.198-.078.281.281 0 0 1-.078-.198v-2.73c0-.016-.008-.026-.024-.03-.012-.008-.022-.008-.03 0l-.09.09a.24.24 0 0 1-.192.084.238.238 0 0 1-.108-.024.231.231 0 0 1-.12-.102.294.294 0 0 1-.042-.15v-.234c0-.076.026-.142.078-.198l.408-.402a.441.441 0 0 1 .09-.06.238.238 0 0 1 .108-.024h.366c.076 0 .138.026.186.078a.268.268 0 0 1 .078.198v3.504Zm.714 13.543a.27.27 0 0 1-.084.198.26.26 0 0 1-.192.078h-1.668a.787.787 0 0 1-.402-.108.827.827 0 0 1-.288-.288.755.755 0 0 1-.108-.396v-.546a.79.79 0 0 1 .144-.456.758.758 0 0 1 .384-.294l1.44-.54c.04-.012.06-.042.06-.09v-.54c0-.056-.026-.084-.078-.084h-1.152c-.02 0-.04.008-.06.024a.081.081 0 0 0-.024.06v.162c0 .076-.028.14-.084.192a.26.26 0 0 1-.192.078h-.162a.281.281 0 0 1-.198-.078.26.26 0 0 1-.078-.192v-.162c0-.148.036-.282.108-.402a.827.827 0 0 1 .288-.288.787.787 0 0 1 .402-.108h1.152c.144 0 .276.036.396.108.12.072.216.168.288.288.072.12.108.254.108.402v.54a.8.8 0 0 1-.144.462.76.76 0 0 1-.378.294l-1.446.54c-.04.012-.06.04-.06.084v.546c0 .02.008.04.024.06.02.016.04.024.06.024h1.668a.26.26 0 0 1 .192.078.258.258 0 0 1 .084.198v.156Z"/>
  <path fill="color(display-p3 1 .1984 .3587)" fill-opacity=".28" d="M74.031 121.851a.755.755 0 0 1-.108.396.827.827 0 0 1-.288.288.755.755 0 0 1-.396.108h-1.152a.787.787 0 0 1-.402-.108.827.827 0 0 1-.288-.288.755.755 0 0 1-.108-.396v-.18a.26.26 0 0 1 .078-.192.27.27 0 0 1 .198-.084h.168c.072 0 .134.028.186.084a.252.252 0 0 1 .084.192v.18c0 .02.008.04.024.06.02.016.04.024.06.024h1.152c.02 0 .038-.008.054-.024a.096.096 0 0 0 .024-.06v-.798c0-.052-.026-.078-.078-.078h-1.152a.281.281 0 0 1-.198-.078.281.281 0 0 1-.078-.198v-.168a.26.26 0 0 1 .078-.192.281.281 0 0 1 .198-.078h1.152c.02 0 .038-.008.054-.024a.096.096 0 0 0 .024-.06v-.792c0-.056-.026-.084-.078-.084h-1.152c-.02 0-.04.008-.06.024a.081.081 0 0 0-.024.06v.162c0 .076-.028.14-.084.192a.254.254 0 0 1-.186.078h-.168a.281.281 0 0 1-.198-.078.26.26 0 0 1-.078-.192v-.162c0-.148.036-.282.108-.402a.827.827 0 0 1 .288-.288.787.787 0 0 1 .402-.108h1.152c.144 0 .276.036.396.108.12.072.216.168.288.288.072.12.108.254.108.402v.792a.789.789 0 0 1-.024.192 1.029 1.029 0 0 1-.066.186c-.032.04-.032.082 0 .126a.876.876 0 0 1 .09.372v.798Zm0 82.73a.755.755 0 0 1-.108.396.827.827 0 0 1-.288.288.755.755 0 0 1-.396.108h-1.152a.787.787 0 0 1-.402-.108.827.827 0 0 1-.288-.288.755.755 0 0 1-.108-.396v-.876a.813.813 0 0 1 .09-.372c.032-.044.032-.088 0-.132a1.09 1.09 0 0 1-.066-.18.789.789 0 0 1-.024-.192v-.714c0-.148.036-.282.108-.402a.827.827 0 0 1 .288-.288.787.787 0 0 1 .402-.108h1.152c.144 0 .276.036.396.108.12.072.216.168.288.288.072.12.108.254.108.402v.714a.876.876 0 0 1-.09.366c-.032.048-.032.094 0 .138a.813.813 0 0 1 .09.372v.876Zm-.714-1.752v-.714c0-.056-.026-.084-.078-.084h-1.152c-.02 0-.04.008-.06.024a.081.081 0 0 0-.024.06v.714c0 .02.008.038.024.054.02.016.04.024.06.024h1.152c.052 0 .078-.026.078-.078Zm0 1.752v-.876c0-.056-.026-.084-.078-.084h-1.152c-.02 0-.04.008-.06.024a.081.081 0 0 0-.024.06v.876c0 .02.008.04.024.06.02.016.04.024.06.024h1.152c.02 0 .038-.008.054-.024a.096.096 0 0 0 .024-.06Zm-2.534 111.495a.281.281 0 0 1-.078.198.242.242 0 0 1-.186.078h-.168a.281.281 0 0 1-.198-.078.281.281 0 0 1-.078-.198v-2.73c0-.016-.008-.026-.024-.03-.012-.008-.022-.008-.03 0l-.09.09a.24.24 0 0 1-.192.084.238.238 0 0 1-.108-.024.231.231 0 0 1-.12-.102.294.294 0 0 1-.042-.15v-.234c0-.076.026-.142.078-.198l.408-.402a.441.441 0 0 1 .09-.06.238.238 0 0 1 .108-.024h.366c.076 0 .138.026.186.078a.268.268 0 0 1 .078.198v3.504Zm3.65-3.342c0 .084-.029.15-.085.198a.26.26 0 0 1-.192.078h-1.674c-.052 0-.078.026-.078.078v.636c0 .056.026.084.078.084h1.158c.148 0 .28.036.396.108.12.072.216.168.288.288a.735.735 0 0 1 .108.396v.96a.755.755 0 0 1-.108.396.827.827 0 0 1-.288.288.755.755 0 0 1-.396.108h-1.152a.787.787 0 0 1-.402-.108.827.827 0 0 1-.288-.288.755.755 0 0 1-.108-.396v-.432a.26.26 0 0 1 .078-.192.27.27 0 0 1 .198-.084h.168c.072 0 .134.028.186.084a.252.252 0 0 1 .084.192v.432c0 .02.008.04.024.06.02.016.04.024.06.024h1.152c.02 0 .038-.008.054-.024a.096.096 0 0 0 .024-.06v-.96a.075.075 0 0 0-.024-.054c-.016-.02-.034-.03-.054-.03h-1.674a.24.24 0 0 1-.192-.084.24.24 0 0 1-.084-.192v-1.668c0-.08.026-.146.078-.198a.281.281 0 0 1 .198-.078h2.19a.26.26 0 0 1 .192.078.258.258 0 0 1 .084.198v.162Z"/>
  <path fill="color(display-p3 .2353 .702 .4431)" d="M74.031 135.64a.755.755 0 0 1-.108.396.827.827 0 0 1-.288.288.755.755 0 0 1-.396.108h-1.152a.787.787 0 0 1-.402-.108.827.827 0 0 1-.288-.288.755.755 0 0 1-.108-.396v-.18a.26.26 0 0 1 .078-.192.27.27 0 0 1 .198-.084h.168c.072 0 .134.028.186.084a.252.252 0 0 1 .084.192v.18c0 .02.008.04.024.06.02.016.04.024.06.024h1.152c.02 0 .038-.008.054-.024a.096.096 0 0 0 .024-.06v-.798c0-.052-.026-.078-.078-.078h-1.152a.281.281 0 0 1-.198-.078.281.281 0 0 1-.078-.198v-.168a.26.26 0 0 1 .078-.192.281.281 0 0 1 .198-.078h1.152c.02 0 .038-.008.054-.024a.096.096 0 0 0 .024-.06v-.792c0-.056-.026-.084-.078-.084h-1.152c-.02 0-.04.008-.06.024a.081.081 0 0 0-.024.06v.162c0 .076-.028.14-.084.192a.254.254 0 0 1-.186.078h-.168a.281.281 0 0 1-.198-.078.26.26 0 0 1-.078-.192v-.162c0-.148.036-.282.108-.402a.827.827 0 0 1 .288-.288.787.787 0 0 1 .402-.108h1.152c.144 0 .276.036.396.108.12.072.216.168.288.288.072.12.108.254.108.402v.792a.789.789 0 0 1-.024.192 1.029 1.029 0 0 1-.066.186c-.032.04-.032.082 0 .126a.876.876 0 0 1 .09.372v.798Z"/>
  <path fill="color(display-p3 .2549 .4118 .8824)" d="M74.031 176.759a.755.755 0 0 1-.108.396.827.827 0 0 1-.288.288.755.755 0 0 1-.396.108h-1.152a.787.787 0 0 1-.402-.108.827.827 0 0 1-.288-.288.755.755 0 0 1-.108-.396v-2.466c0-.148.036-.282.108-.402a.827.827 0 0 1 .288-.288.787.787 0 0 1 .402-.108h1.152c.144 0 .276.036.396.108.12.072.216.168.288.288.072.12.108.254.108.402v.15a.27.27 0 0 1-.084.198.252.252 0 0 1-.192.084h-.162a.27.27 0 0 1-.198-.084.281.281 0 0 1-.078-.198v-.15c0-.056-.026-.084-.078-.084h-1.152c-.02 0-.04.008-.06.024a.081.081 0 0 0-.024.06v.636c0 .052.026.078.078.078h1.158c.144 0 .276.036.396.108a.779.779 0 0 1 .396.684v.96Zm-.714 0v-.96c0-.056-.026-.084-.078-.084h-1.158c-.052 0-.078.026-.078.078v.966c0 .02.008.04.024.06.02.016.04.024.06.024h1.152c.02 0 .038-.008.054-.024a.096.096 0 0 0 .024-.06Z"/>
  <path fill="color(display-p3 .2353 .702 .4431)" d="M74.031 188.585a.967.967 0 0 1-.024.21c-.012.068-.03.136-.054.204l-.948 2.412a.261.261 0 0 1-.102.126.258.258 0 0 1-.156.048h-.174c-.104 0-.18-.04-.228-.12a.258.258 0 0 1-.024-.252l.972-2.478a.474.474 0 0 0 .024-.15v-.264c0-.052-.024-.078-.072-.078h-1.164c-.052 0-.078.026-.078.078v.168c0 .076-.028.14-.084.192a.254.254 0 0 1-.186.078h-.168a.281.281 0 0 1-.198-.078.26.26 0 0 1-.078-.192v-.684c0-.08.026-.146.078-.198a.281.281 0 0 1 .198-.078h2.19a.26.26 0 0 1 .192.078.258.258 0 0 1 .084.198v.78Zm0 43.327a.755.755 0 0 1-.108.396.827.827 0 0 1-.288.288.755.755 0 0 1-.396.108h-1.152a.787.787 0 0 1-.402-.108.827.827 0 0 1-.288-.288.755.755 0 0 1-.108-.396v-.18a.26.26 0 0 1 .078-.192.27.27 0 0 1 .198-.084h.168c.072 0 .134.028.186.084a.252.252 0 0 1 .084.192v.18c0 .02.008.04.024.06.02.016.04.024.06.024h1.152c.02 0 .038-.008.054-.024a.096.096 0 0 0 .024-.06v-.636c0-.052-.024-.078-.072-.078h-1.158a.787.787 0 0 1-.402-.108.827.827 0 0 1-.288-.288.787.787 0 0 1-.108-.402v-.954c0-.148.036-.282.108-.402a.827.827 0 0 1 .288-.288.787.787 0 0 1 .402-.108h1.152c.144 0 .276.036.396.108.12.072.216.168.288.288.072.12.108.254.108.402v2.466Zm-.714-1.506v-.96c0-.056-.026-.084-.078-.084h-1.152c-.02 0-.04.008-.06.024a.081.081 0 0 0-.024.06v.954c0 .024.008.044.024.06.02.016.04.024.06.024h1.158c.048 0 .072-.026.072-.078Zm-2.935 16.056a.281.281 0 0 1-.079.198.242.242 0 0 1-.185.078h-.168a.281.281 0 0 1-.199-.078.281.281 0 0 1-.078-.198v-2.73c0-.016-.008-.026-.023-.03-.013-.008-.023-.008-.03 0l-.09.09a.24.24 0 0 1-.192.084.238.238 0 0 1-.108-.024.231.231 0 0 1-.12-.102.294.294 0 0 1-.043-.15v-.234c0-.076.027-.142.079-.198l.407-.402a.441.441 0 0 1 .09-.06.238.238 0 0 1 .108-.024h.367c.076 0 .138.026.186.078a.268.268 0 0 1 .078.198v3.504Zm3.649-.516a.755.755 0 0 1-.108.396.827.827 0 0 1-.288.288.755.755 0 0 1-.396.108h-1.152a.786.786 0 0 1-.366-.09l-.006-.006a.774.774 0 0 1-.426-.696v-2.466c0-.148.036-.282.108-.402a.827.827 0 0 1 .288-.288.787.787 0 0 1 .402-.108h1.152c.036 0 .084.006.144.018.064.008.13.03.198.066h.006a.793.793 0 0 1 .444.714v2.466Zm-1.116-2.478c.008-.02.008-.036 0-.048-.008-.016-.022-.024-.042-.024h-.786c-.02 0-.04.008-.06.024a.081.081 0 0 0-.024.06v1.56c0 .016.008.026.024.03s.028-.002.036-.018l.852-1.584Zm.402 2.478v-1.602c0-.02-.008-.032-.024-.036-.012-.004-.024.002-.036.018l-.87 1.632a.068.068 0 0 0 .006.048c.008.016.02.024.036.024h.81c.02 0 .038-.008.054-.024a.096.096 0 0 0 .024-.06Zm-3.141 83.742a.281.281 0 0 1-.078.198.242.242 0 0 1-.186.078h-.168a.281.281 0 0 1-.198-.078.281.281 0 0 1-.078-.198v-2.73c0-.016-.008-.026-.024-.03-.012-.008-.022-.008-.03 0l-.09.09a.24.24 0 0 1-.192.084.238.238 0 0 1-.108-.024.231.231 0 0 1-.12-.102.294.294 0 0 1-.042-.15v-.234c0-.076.026-.142.078-.198l.408-.402a.441.441 0 0 1 .09-.06.238.238 0 0 1 .108-.024h.366c.076 0 .138.026.186.078a.268.268 0 0 1 .078.198v3.504Zm3.65-.516a.755.755 0 0 1-.108.396.827.827 0 0 1-.288.288.755.755 0 0 1-.396.108h-1.152a.787.787 0 0 1-.402-.108.827.827 0 0 1-.288-.288.755.755 0 0 1-.108-.396v-2.466c0-.148.036-.282.108-.402a.827.827 0 0 1 .288-.288.787.787 0 0 1 .402-.108h1.152c.144 0 .276.036.396.108.12.072.216.168.288.288.072.12.108.254.108.402v.15a.27.27 0 0 1-.084.198.252.252 0 0 1-.192.084h-.162a.27.27 0 0 1-.198-.084.281.281 0 0 1-.078-.198v-.15c0-.056-.026-.084-.078-.084h-1.152c-.02 0-.04.008-.06.024a.081.081 0 0 0-.024.06v.636c0 .052.026.078.078.078h1.158c.144 0 .276.036.396.108a.779.779 0 0 1 .396.684v.96Zm-.714 0v-.96c0-.056-.026-.084-.078-.084h-1.158c-.052 0-.078.026-.078.078v.966c0 .02.008.04.024.06.02.016.04.024.06.024h1.152c.02 0 .038-.008.054-.024a.096.096 0 0 0 .024-.06Zm-2.73-55.134a.281.281 0 0 1-.079.198.242.242 0 0 1-.185.078h-.168a.281.281 0 0 1-.199-.078.281.281 0 0 1-.078-.198v-2.73c0-.016-.008-.026-.023-.03-.013-.008-.023-.008-.03 0l-.09.09a.24.24 0 0 1-.192.084.238.238 0 0 1-.108-.024.231.231 0 0 1-.12-.102.294.294 0 0 1-.043-.15v-.234c0-.076.027-.142.079-.198l.407-.402a.441.441 0 0 1 .09-.06.238.238 0 0 1 .108-.024h.367c.076 0 .138.026.186.078a.268.268 0 0 1 .078.198v3.504Zm3.649 0a.27.27 0 0 1-.084.198.26.26 0 0 1-.192.078h-1.668a.787.787 0 0 1-.402-.108.827.827 0 0 1-.288-.288.755.755 0 0 1-.108-.396v-.546a.79.79 0 0 1 .144-.456.758.758 0 0 1 .384-.294l1.44-.54c.04-.012.06-.042.06-.09v-.54c0-.056-.026-.084-.078-.084h-1.152c-.02 0-.04.008-.06.024a.081.081 0 0 0-.024.06v.162c0 .076-.028.14-.084.192a.26.26 0 0 1-.192.078h-.162a.281.281 0 0 1-.198-.078.26.26 0 0 1-.078-.192v-.162c0-.148.036-.282.108-.402a.827.827 0 0 1 .288-.288.787.787 0 0 1 .402-.108h1.152c.144 0 .276.036.396.108.12.072.216.168.288.288.072.12.108.254.108.402v.54a.8.8 0 0 1-.144.462.76.76 0 0 1-.378.294l-1.446.54c-.04.012-.06.04-.06.084v.546c0 .02.008.04.024.06.02.016.04.024.06.024h1.668a.26.26 0 0 1 .192.078.258.258 0 0 1 .084.198v.156Zm-3.649 27.577a.281.281 0 0 1-.079.198.242.242 0 0 1-.185.078h-.168a.281.281 0 0 1-.199-.078.281.281 0 0 1-.078-.198v-2.73c0-.016-.008-.026-.023-.03-.013-.008-.023-.008-.03 0l-.09.09a.24.24 0 0 1-.192.084.238.238 0 0 1-.108-.024.231.231 0 0 1-.12-.102.294.294 0 0 1-.043-.15v-.234c0-.076.027-.142.079-.198l.407-.402a.441.441 0 0 1 .09-.06.238.238 0 0 1 .108-.024h.367c.076 0 .138.026.186.078a.268.268 0 0 1 .078.198v3.504Zm3.655-.78a.264.264 0 0 1-.084.192.26.26 0 0 1-.192.078h-.138c-.056 0-.084.026-.084.078v.432a.281.281 0 0 1-.078.198.26.26 0 0 1-.192.078h-.162a.281.281 0 0 1-.198-.078.281.281 0 0 1-.078-.198v-.432c0-.052-.026-.078-.078-.078h-1.194a.281.281 0 0 1-.198-.078.274.274 0 0 1-.078-.192v-.756c0-.184.042-.36.126-.528l.492-.936a.258.258 0 0 1 .246-.156h.18c.104 0 .182.044.234.132.056.084.06.174.012.27l-.528 1.02a.492.492 0 0 0-.048.198v.24c0 .048.028.072.084.072h.672c.052 0 .078-.024.078-.072v-2.208c0-.08.026-.146.078-.198a.281.281 0 0 1 .198-.078h.162a.268.268 0 0 1 .27.276v2.208c0 .048.028.072.084.072h.138c.076 0 .14.028.192.084a.252.252 0 0 1 .084.192v.168Z"/>
  <path fill="color(display-p3 .2549 .4118 .8824)" d="M70.382 287.827a.281.281 0 0 1-.079.198.242.242 0 0 1-.185.078h-.168a.281.281 0 0 1-.199-.078.281.281 0 0 1-.078-.198v-2.73c0-.016-.008-.026-.023-.03-.013-.008-.023-.008-.03 0l-.09.09a.24.24 0 0 1-.192.084.238.238 0 0 1-.108-.024.231.231 0 0 1-.12-.102.294.294 0 0 1-.043-.15v-.234c0-.076.027-.142.079-.198l.407-.402a.441.441 0 0 1 .09-.06.238.238 0 0 1 .108-.024h.367c.076 0 .138.026.186.078a.268.268 0 0 1 .078.198v3.504Zm3.649-.516a.755.755 0 0 1-.108.396.827.827 0 0 1-.288.288.755.755 0 0 1-.396.108h-1.152a.787.787 0 0 1-.402-.108.827.827 0 0 1-.288-.288.755.755 0 0 1-.108-.396v-.18a.26.26 0 0 1 .078-.192.27.27 0 0 1 .198-.084h.168c.072 0 .134.028.186.084a.252.252 0 0 1 .084.192v.18c0 .02.008.04.024.06.02.016.04.024.06.024h1.152c.02 0 .038-.008.054-.024a.096.096 0 0 0 .024-.06v-.798c0-.052-.026-.078-.078-.078h-1.152a.281.281 0 0 1-.198-.078.281.281 0 0 1-.078-.198v-.168a.26.26 0 0 1 .078-.192.281.281 0 0 1 .198-.078h1.152c.02 0 .038-.008.054-.024a.096.096 0 0 0 .024-.06v-.792c0-.056-.026-.084-.078-.084h-1.152c-.02 0-.04.008-.06.024a.081.081 0 0 0-.024.06v.162c0 .076-.028.14-.084.192a.254.254 0 0 1-.186.078h-.168a.281.281 0 0 1-.198-.078.26.26 0 0 1-.078-.192v-.162c0-.148.036-.282.108-.402a.827.827 0 0 1 .288-.288.787.787 0 0 1 .402-.108h1.152c.144 0 .276.036.396.108.12.072.216.168.288.288.072.12.108.254.108.402v.792a.789.789 0 0 1-.024.192 1.029 1.029 0 0 1-.066.186c-.032.04-.032.082 0 .126a.876.876 0 0 1 .09.372v.798Zm-3.248 56.165a.281.281 0 0 1-.078.198.242.242 0 0 1-.186.078h-.168a.281.281 0 0 1-.198-.078.281.281 0 0 1-.078-.198v-2.73c0-.016-.008-.026-.024-.03-.012-.008-.022-.008-.03 0l-.09.09a.24.24 0 0 1-.192.084.238.238 0 0 1-.108-.024.231.231 0 0 1-.12-.102.294.294 0 0 1-.042-.15v-.234c0-.076.026-.142.078-.198l.408-.402a.441.441 0 0 1 .09-.06.238.238 0 0 1 .108-.024h.366c.076 0 .138.026.186.078a.268.268 0 0 1 .078.198v3.504Zm3.65-2.724a.967.967 0 0 1-.025.21c-.012.068-.03.136-.054.204l-.948 2.412a.261.261 0 0 1-.102.126.258.258 0 0 1-.156.048h-.174c-.104 0-.18-.04-.228-.12a.258.258 0 0 1-.024-.252l.972-2.478a.474.474 0 0 0 .024-.15v-.264c0-.052-.024-.078-.072-.078h-1.164c-.052 0-.078.026-.078.078v.168c0 .076-.028.14-.084.192a.254.254 0 0 1-.186.078h-.168a.281.281 0 0 1-.198-.078.26.26 0 0 1-.078-.192v-.684c0-.08.026-.146.078-.198a.281.281 0 0 1 .198-.078h2.19a.26.26 0 0 1 .192.078.258.258 0 0 1 .084.198v.78Zm-3.65 16.758a.281.281 0 0 1-.078.198.242.242 0 0 1-.186.078h-.168a.281.281 0 0 1-.198-.078.281.281 0 0 1-.078-.198v-2.73c0-.016-.008-.026-.024-.03-.012-.008-.022-.008-.03 0l-.09.09a.24.24 0 0 1-.192.084.238.238 0 0 1-.108-.024.231.231 0 0 1-.12-.102.294.294 0 0 1-.042-.15v-.234c0-.076.026-.142.078-.198l.408-.402a.441.441 0 0 1 .09-.06.238.238 0 0 1 .108-.024h.366c.076 0 .138.026.186.078a.268.268 0 0 1 .078.198v3.504Zm3.65-.516a.755.755 0 0 1-.109.396.827.827 0 0 1-.288.288.755.755 0 0 1-.396.108h-1.152a.787.787 0 0 1-.402-.108.827.827 0 0 1-.288-.288.755.755 0 0 1-.108-.396v-.876a.813.813 0 0 1 .09-.372c.032-.044.032-.088 0-.132a1.09 1.09 0 0 1-.066-.18.789.789 0 0 1-.024-.192v-.714c0-.148.036-.282.108-.402a.827.827 0 0 1 .288-.288.787.787 0 0 1 .402-.108h1.152c.144 0 .276.036.396.108.12.072.216.168.288.288.072.12.108.254.108.402v.714a.876.876 0 0 1-.09.366c-.032.048-.032.094 0 .138a.813.813 0 0 1 .09.372v.876Zm-.715-1.752v-.714c0-.056-.026-.084-.078-.084h-1.152c-.02 0-.04.008-.06.024a.081.081 0 0 0-.024.06v.714c0 .02.008.038.024.054.02.016.04.024.06.024h1.152c.052 0 .078-.026.078-.078Zm0 1.752v-.876c0-.056-.026-.084-.078-.084h-1.152c-.02 0-.04.008-.06.024a.081.081 0 0 0-.024.06v.876c0 .02.008.04.024.06.02.016.04.024.06.024h1.152c.02 0 .038-.008.054-.024a.096.096 0 0 0 .024-.06Z"/>
  <path fill="color(display-p3 1 .8431 0)" d="M74.031 218.369a.755.755 0 0 1-.108.396.827.827 0 0 1-.288.288.755.755 0 0 1-.396.108h-1.152a.787.787 0 0 1-.402-.108.827.827 0 0 1-.288-.288.755.755 0 0 1-.108-.396v-.876a.813.813 0 0 1 .09-.372c.032-.044.032-.088 0-.132a1.09 1.09 0 0 1-.066-.18.789.789 0 0 1-.024-.192v-.714c0-.148.036-.282.108-.402a.827.827 0 0 1 .288-.288.787.787 0 0 1 .402-.108h1.152c.144 0 .276.036.396.108.12.072.216.168.288.288.072.12.108.254.108.402v.714a.876.876 0 0 1-.09.366c-.032.048-.032.094 0 .138a.813.813 0 0 1 .09.372v.876Zm-.714-1.752v-.714c0-.056-.026-.084-.078-.084h-1.152c-.02 0-.04.008-.06.024a.081.081 0 0 0-.024.06v.714c0 .02.008.038.024.054.02.016.04.024.06.024h1.152c.052 0 .078-.026.078-.078Zm0 1.752v-.876c0-.056-.026-.084-.078-.084h-1.152c-.02 0-.04.008-.06.024a.081.081 0 0 0-.024.06v.876c0 .02.008.04.024.06.02.016.04.024.06.024h1.152c.02 0 .038-.008.054-.024a.096.096 0 0 0 .024-.06Zm-3.234 41.881a.281.281 0 0 1-.078.198.242.242 0 0 1-.186.078h-.168a.281.281 0 0 1-.198-.078.281.281 0 0 1-.078-.198v-2.73c0-.016-.008-.026-.024-.03-.012-.008-.022-.008-.03 0l-.09.09a.24.24 0 0 1-.192.084.238.238 0 0 1-.108-.024.231.231 0 0 1-.12-.102.294.294 0 0 1-.042-.15v-.234c0-.076.026-.142.078-.198l.408-.402a.441.441 0 0 1 .09-.06.238.238 0 0 1 .108-.024h.366c.076 0 .138.026.186.078a.268.268 0 0 1 .078.198v3.504Zm3.234 0a.281.281 0 0 1-.078.198.242.242 0 0 1-.186.078h-.168a.281.281 0 0 1-.198-.078.281.281 0 0 1-.078-.198v-2.73c0-.016-.008-.026-.024-.03-.012-.008-.022-.008-.03 0l-.09.09a.24.24 0 0 1-.192.084.238.238 0 0 1-.108-.024.231.231 0 0 1-.12-.102.294.294 0 0 1-.042-.15v-.234c0-.076.026-.142.078-.198l.408-.402a.441.441 0 0 1 .09-.06.238.238 0 0 1 .108-.024h.366c.076 0 .138.026.186.078a.268.268 0 0 1 .078.198v3.504Z"/>
  <path fill="color(display-p3 .2353 .702 .4431)" d="M74.031 160.39c0 .084-.028.15-.084.198a.26.26 0 0 1-.192.078h-1.674c-.052 0-.078.026-.078.078v.636c0 .056.026.084.078.084h1.158c.148 0 .28.036.396.108.12.072.216.168.288.288a.735.735 0 0 1 .108.396v.96a.755.755 0 0 1-.108.396.827.827 0 0 1-.288.288.755.755 0 0 1-.396.108h-1.152a.787.787 0 0 1-.402-.108.827.827 0 0 1-.288-.288.755.755 0 0 1-.108-.396v-.432a.26.26 0 0 1 .078-.192.27.27 0 0 1 .198-.084h.168c.072 0 .134.028.186.084a.252.252 0 0 1 .084.192v.432c0 .02.008.04.024.06.02.016.04.024.06.024h1.152c.02 0 .038-.008.054-.024a.096.096 0 0 0 .024-.06v-.96a.075.075 0 0 0-.024-.054c-.016-.02-.034-.03-.054-.03h-1.674a.24.24 0 0 1-.192-.084.24.24 0 0 1-.084-.192v-1.668c0-.08.026-.146.078-.198a.281.281 0 0 1 .198-.078h2.19a.26.26 0 0 1 .192.078.258.258 0 0 1 .084.198v.162Z"/>
  <path fill="color(display-p3 .2549 .4118 .8824)" d="M74.037 149.164a.264.264 0 0 1-.084.192.26.26 0 0 1-.192.078h-.138c-.056 0-.084.026-.084.078v.432a.281.281 0 0 1-.078.198.26.26 0 0 1-.192.078h-.162a.281.281 0 0 1-.198-.078.281.281 0 0 1-.078-.198v-.432c0-.052-.026-.078-.078-.078h-1.194a.281.281 0 0 1-.198-.078.274.274 0 0 1-.078-.192v-.756c0-.184.042-.36.126-.528l.492-.936a.258.258 0 0 1 .246-.156h.18c.104 0 .182.044.234.132.056.084.06.174.012.27l-.528 1.02a.492.492 0 0 0-.048.198v.24c0 .048.028.072.084.072h.672c.052 0 .078-.024.078-.072v-2.208c0-.08.026-.146.078-.198a.281.281 0 0 1 .198-.078h.162a.268.268 0 0 1 .27.276v2.208c0 .048.028.072.084.072h.138c.076 0 .14.028.192.084a.252.252 0 0 1 .084.192v.168Z"/>
  <path stroke="color(display-p3 1 .1984 .3587)" stroke-width=".25" d="M181.841 320.352H69.093a6 6 0 0 1 0-12h112.748a6 6 0 0 1 0 12Z"/>
  <path fill="#fff" d="M55.16 436.154c0 .24-.078.432-.234.576l-3.582 3.582c-.192.168-.39.252-.594.252h-.702a.8.8 0 0 1-.45-.144.983.983 0 0 1-.306-.36c-.132-.324-.072-.624.18-.9l3.078-3.096c.132-.084.132-.192 0-.324l-3.078-3.078c-.264-.24-.324-.54-.18-.9a.784.784 0 0 1 .306-.378.8.8 0 0 1 .45-.144h.702c.204 0 .402.084.594.252l3.582 3.582a.783.783 0 0 1 .234.576v.504Zm8.48 3.582a.813.813 0 0 1-.252.594.783.783 0 0 1-.576.234h-5.364a.844.844 0 0 1-.594-.234.844.844 0 0 1-.234-.594v-.468c0-.24.078-.438.234-.594a.844.844 0 0 1 .594-.234h5.364c.228 0 .42.078.576.234a.775.775 0 0 1 .252.594v.468Z"/>
  <path stroke="#fff" stroke-dasharray="1 1" stroke-linecap="round" stroke-opacity=".32" stroke-width=".5" d="M37.805 411.988h138.567"/>
  <path fill="color(display-p3 .9882 .4275 .149)" d="m220.466 414.223-1.459-4.487-2.89-8.89a.494.494 0 0 0-.764-.248.496.496 0 0 0-.181.248l-2.889 8.889h-9.599l-2.887-8.889a.494.494 0 0 0-.764-.248.496.496 0 0 0-.181.248l-2.889 8.889-1.457 4.487a.991.991 0 0 0 .361 1.11l12.618 9.169 12.619-9.168a.995.995 0 0 0 .362-1.11Z"/>
  <path fill="color(display-p3 .8863 .2627 .1608)" d="m207.485 424.501 4.798-14.765h-9.599l4.798 14.765h.003Z"/>
  <path fill="color(display-p3 .9882 .4275 .149)" d="m207.485 424.501-4.801-14.766h-6.721l11.519 14.765.003.001Z"/>
  <path fill="color(display-p3 .9882 .6392 .149)" d="m195.963 409.735-1.458 4.487a.988.988 0 0 0 .361 1.11l12.619 9.169-11.518-14.765-.004-.001Z"/>
  <path fill="color(display-p3 .8863 .2627 .1608)" d="M195.963 409.735h6.721l-2.887-8.89a.495.495 0 0 0-.764-.249.503.503 0 0 0-.181.249l-2.889 8.89Z"/>
  <path fill="color(display-p3 .9882 .4275 .149)" d="m207.485 424.501 4.798-14.765h6.724l-11.518 14.765h-.004Z"/>
  <path fill="color(display-p3 .9882 .6392 .149)" d="m219.007 409.735 1.459 4.487a.995.995 0 0 1-.361 1.11l-12.62 9.169 11.519-14.765.003-.001Z"/>
  <path fill="color(display-p3 .8863 .2627 .1608)" d="M219.007 409.735h-6.724l2.89-8.89a.495.495 0 0 1 .765-.249.495.495 0 0 1 .18.249l2.89 8.893-.001-.003Z"/>
  <path fill="#fff" d="M241.614 419.828c0 .099-.115.179-.259.179-.163.014-.277-.065-.277-.179 0-.099.114-.179.258-.179.149-.015.278.065.278.179Zm-1.544-.223c-.035.099.065.213.214.243.129.049.277 0 .307-.1.03-.099-.064-.213-.213-.258-.129-.034-.273.015-.308.115Zm2.194-.085c-.144.035-.244.129-.229.243.015.1.144.164.293.129.144-.034.243-.129.228-.228-.014-.094-.148-.159-.292-.144Zm3.265-19.017c-6.883 0-12.149 5.226-12.149 12.109 0 5.504 3.464 10.213 8.412 11.871.635.114.859-.278.859-.601 0-.307-.015-2.005-.015-3.047 0 0-3.474.745-4.204-1.479 0 0-.565-1.444-1.379-1.816 0 0-1.137-.779.079-.764 0 0 1.236.099 1.916 1.28 1.087 1.916 2.908 1.365 3.618 1.037.114-.794.436-1.344.794-1.672-2.774-.308-5.573-.71-5.573-5.484 0-1.365.377-2.049 1.171-2.923-.129-.322-.551-1.652.129-3.37 1.037-.322 3.424 1.34 3.424 1.34.993-.278 2.06-.421 3.117-.421s2.124.143 3.116.421c0 0 2.387-1.667 3.424-1.34.68 1.723.259 3.048.13 3.37.794.879 1.28 1.563 1.28 2.923 0 4.789-2.923 5.171-5.697 5.484.456.392.843 1.136.843 2.303 0 1.672-.015 3.742-.015 4.148 0 .323.229.715.859.601 4.963-1.648 8.327-6.357 8.327-11.861 0-6.883-5.583-12.109-12.466-12.109Zm-7.325 17.116c-.064.05-.049.164.035.259.079.079.193.114.258.049.064-.049.05-.164-.035-.258-.079-.079-.193-.114-.258-.05Zm-.536-.402c-.035.065.015.144.114.194.08.05.179.035.214-.035.034-.064-.015-.144-.114-.193-.1-.03-.179-.015-.214.034Zm1.608 1.767c-.079.065-.05.214.065.308.114.114.258.129.322.05.065-.065.035-.214-.064-.308-.109-.114-.258-.129-.323-.05Zm-.566-.729c-.079.049-.079.178 0 .293.08.114.214.163.278.114.08-.065.08-.194 0-.308-.069-.114-.198-.164-.278-.099Z"/>
  <path fill="color(display-p3 0 .3216 .8)" d="M309.238 411.7c-4.093-4.082-9.512-9.54-13.561-13.572-9.293 9.26-13.617 13.572-13.617 13.572a1.144 1.144 0 0 0 0 1.612c7.457 7.429 3.471 3.453 13.617 13.566 21.304-21.225.882-.938 13.561-13.572a1.126 1.126 0 0 0 0-1.606Z"/>
  <path fill="#fff" d="m295.651 416.753-4.267-4.251 4.267-4.251 4.268 4.251-4.268 4.251Z"/>
  <path fill="color(display-p3 .2667 .5333 .6667)" fill-opacity=".32" d="M353.848 411.488a.495.495 0 0 0-.5.5.501.501 0 0 0 .5.5l7.558-.016 136.056-.281 7.558-.016a.187.187 0 0 0 .187-.187.188.188 0 0 0-.187-.188l-7.558-.016-136.056-.281-7.558-.015Z"/>
  <path fill="color(display-p3 .1333 .2667 .4)" fill-opacity=".125" d="M503.02 299.526H310.449a2 2 0 0 1-2-2v-40.283a2 2 0 0 1 2-2H503.02a2 2 0 0 1 2 2v40.283a2 2 0 0 1-2 2Z"/>
  <path fill="color(display-p3 .1333 .2667 .4)" d="M448.296 437.864c0 .3-.107.556-.32.77-.214.206-.474.31-.78.31h-.84c-.14 0-.27-.024-.39-.07a.448.448 0 0 0-.23 0c-.114.046-.244.07-.39.07h-.47c-.307 0-.567-.107-.78-.32a1.093 1.093 0 0 1-.32-.79v-1.33c0-.207.05-.394.15-.56.1-.167.233-.3.4-.4a.995.995 0 0 1 .55-.16h.47c.066 0 .133.01.2.03a.705.705 0 0 1 .18.06.37.37 0 0 0 .24-.02c.066-.02.133-.037.2-.05a.827.827 0 0 1 .22-.03c.126 0 .23.046.31.14.086.086.13.193.13.32v.28c0 .2-.087.336-.26.41-.074.04-.11.1-.11.18v.93c0 .08.043.12.13.12h.39c.086 0 .13-.04.13-.12v-2.5c0-.094-.047-.14-.14-.14h-3.35c-.06 0-.1.02-.12.06a.292.292 0 0 0-.02.08v4.11c0 .033.01.066.03.1a.15.15 0 0 0 .11.04h3.35a.447.447 0 0 1 .46.46v.26a.474.474 0 0 1-.13.33.45.45 0 0 1-.33.13h-3.35c-.247 0-.47-.06-.67-.18-.2-.12-.36-.28-.48-.48-.12-.2-.18-.42-.18-.66v-4.11c0-.247.06-.47.18-.67.12-.2.28-.36.48-.48.2-.12.423-.18.67-.18h3.35c.246 0 .47.06.67.18.2.12.36.28.48.48.12.2.18.423.18.67v2.73Zm-3.03-.23v-.92c0-.087-.044-.13-.13-.13h-.05c-.087 0-.13.043-.13.13v.92c0 .08.043.12.13.12h.05c.086 0 .13-.04.13-.12Zm8.276 1.61c0 .24-.06.46-.18.66s-.28.36-.48.48c-.2.12-.42.18-.66.18h-2.67a.474.474 0 0 1-.33-.13.474.474 0 0 1-.13-.33v-5.84c0-.134.044-.244.13-.33a.47.47 0 0 1 .33-.13h2.67c.24 0 .46.06.66.18s.36.28.48.48c.12.2.18.423.18.67v4.11Zm-1.19 0v-4.11c0-.094-.043-.14-.13-.14h-1.8c-.086 0-.13.043-.13.13v4.13c0 .086.044.13.13.13h1.8a.125.125 0 0 0 .09-.04.16.16 0 0 0 .04-.1Zm7.104-5.21c.08.153.077.31-.01.47l-1.87 3.04c-.027.033-.04.09-.04.17v2.39a.455.455 0 0 1-.14.33.438.438 0 0 1-.32.13h-.28a.47.47 0 0 1-.33-.13.47.47 0 0 1-.13-.33v-2.4c0-.074-.017-.127-.05-.16l-1.86-3.04c-.087-.167-.09-.32-.01-.46.087-.16.22-.24.4-.24h.32c.18 0 .313.073.4.22.073.113.183.293.33.54.147.246.31.516.49.81.18.286.35.56.51.82.013.026.033.04.06.04.033 0 .06-.014.08-.04.18-.294.357-.58.53-.86.173-.287.33-.544.47-.77.147-.234.257-.414.33-.54a.424.424 0 0 1 .39-.22h.32c.187 0 .323.076.41.23Zm5.197 6.07a.455.455 0 0 1-.14.33.426.426 0 0 1-.31.13h-3.44a.46.46 0 0 1-.32-.13.47.47 0 0 1-.13-.33v-5.84a.444.444 0 0 1 .45-.46h.28c.127 0 .233.043.32.13a.43.43 0 0 1 .14.33v4.99c0 .086.04.13.12.13h2.58c.12 0 .223.043.31.13a.43.43 0 0 1 .14.33v.26Zm5.967-.14a.49.49 0 0 1-.07.42.43.43 0 0 1-.37.18h-.29a.47.47 0 0 1-.27-.09.495.495 0 0 1-.17-.22l-.38-1.15c-.027-.087-.083-.13-.17-.13h-1.71c-.087 0-.143.043-.17.13l-.38 1.15a.495.495 0 0 1-.17.22c-.08.06-.17.09-.27.09h-.29a.43.43 0 0 1-.37-.18.438.438 0 0 1-.06-.42l1.94-5.85a.447.447 0 0 1 .16-.22c.08-.06.167-.09.26-.09h.41c.093 0 .18.03.26.09a.38.38 0 0 1 .16.22l1.95 5.85Zm-2.02-2.3-.5-1.53c-.033-.047-.07-.047-.11 0l-.5 1.53a.088.088 0 0 0 .01.09c.02.026.047.04.08.04h.93c.033 0 .06-.014.08-.04a.088.088 0 0 0 .01-.09Zm7.366 2.27a.41.41 0 0 1-.03.42.45.45 0 0 1-.38.21h-.3a.498.498 0 0 1-.26-.08.452.452 0 0 1-.17-.2l-.94-2.25a.18.18 0 0 0-.18-.12h-.93c-.086 0-.13.043-.13.13v2.06a.451.451 0 0 1-.14.33.436.436 0 0 1-.32.13h-.28a.44.44 0 0 1-.32-.13.493.493 0 0 1-.12-.33v-5.84c0-.134.04-.244.12-.33a.435.435 0 0 1 .32-.13h2.71c.24 0 .46.06.66.18s.36.28.48.48c.12.2.18.423.18.67v1.46c0 .26-.07.496-.21.71a1.37 1.37 0 0 1-.53.48c-.026.006-.046.03-.06.07a.109.109 0 0 0 .01.1l.82 1.98Zm-1.22-3.34v-1.46c0-.094-.043-.14-.13-.14h-1.84c-.086 0-.13.043-.13.13v1.47c0 .086.044.13.13.13h1.84c.087 0 .13-.044.13-.13Zm6.531 2.65c0 .24-.06.46-.18.66s-.28.36-.48.48c-.2.12-.42.18-.66.18h-1.8c-.24 0-.464-.06-.67-.18-.2-.12-.36-.28-.48-.48-.12-.2-.18-.42-.18-.66v-4.11c0-.247.06-.47.18-.67.12-.2.28-.36.48-.48.206-.12.43-.18.67-.18h1.8c.24 0 .46.06.66.18s.36.28.48.48c.12.2.18.423.18.67v.27a.44.44 0 0 1-.13.32.45.45 0 0 1-.33.13h-.27a.47.47 0 0 1-.33-.13.435.435 0 0 1-.13-.32v-.27c0-.094-.044-.14-.13-.14h-1.8c-.087 0-.13.046-.13.14v4.11a.16.16 0 0 0 .04.1c.026.026.056.04.09.04h1.8a.128.128 0 0 0 .09-.04.166.166 0 0 0 .04-.1v-.3c0-.127.043-.234.13-.32a.448.448 0 0 1 .33-.14h.27a.43.43 0 0 1 .33.14c.086.086.13.193.13.32v.3Zm5.263.86a.47.47 0 0 1-.13.33.448.448 0 0 1-.33.13h-.27a.474.474 0 0 1-.33-.13.474.474 0 0 1-.13-.33v-2.2c0-.08-.043-.12-.13-.12h-1.8c-.086 0-.13.04-.13.12v2.2a.451.451 0 0 1-.14.33.436.436 0 0 1-.32.13h-.28a.474.474 0 0 1-.33-.13.474.474 0 0 1-.13-.33v-5.84c0-.134.044-.244.13-.33a.47.47 0 0 1 .33-.13h.28c.127 0 .234.043.32.13.094.086.14.196.14.33v2.19c0 .093.044.14.13.14h1.8c.087 0 .13-.047.13-.14v-2.19c0-.134.044-.244.13-.33a.47.47 0 0 1 .33-.13h.27a.444.444 0 0 1 .46.46v5.84Zm5.154 0a.455.455 0 0 1-.14.33.426.426 0 0 1-.31.13h-3.44a.46.46 0 0 1-.32-.13.47.47 0 0 1-.13-.33v-5.84a.444.444 0 0 1 .45-.46h3.44c.12 0 .223.043.31.13a.43.43 0 0 1 .14.33v.27a.455.455 0 0 1-.14.33.426.426 0 0 1-.31.13h-2.58c-.08 0-.12.043-.12.13v1.33c0 .093.04.14.12.14h2.22a.447.447 0 0 1 .46.45v.28a.47.47 0 0 1-.13.33.45.45 0 0 1-.33.13h-2.22c-.08 0-.12.04-.12.12v1.35c0 .086.04.13.12.13h2.58c.12 0 .223.043.31.13a.43.43 0 0 1 .14.33v.26Zm5.327-.17a.41.41 0 0 1-.03.42c-.1.14-.227.21-.38.21h-.3a.496.496 0 0 1-.26-.08.446.446 0 0 1-.17-.2l-.94-2.25a.18.18 0 0 0-.18-.12h-.93c-.087 0-.13.043-.13.13v2.06a.455.455 0 0 1-.14.33.438.438 0 0 1-.32.13h-.28a.438.438 0 0 1-.32-.13.493.493 0 0 1-.12-.33v-5.84c0-.134.04-.244.12-.33a.434.434 0 0 1 .32-.13h2.71c.24 0 .46.06.66.18s.36.28.48.48c.12.2.18.423.18.67v1.46c0 .26-.07.496-.21.71a1.37 1.37 0 0 1-.53.48c-.027.006-.047.03-.06.07a.109.109 0 0 0 .01.1l.82 1.98Zm-1.22-3.34v-1.46c0-.094-.043-.14-.13-.14h-1.84c-.087 0-.13.043-.13.13v1.47c0 .086.043.13.13.13h1.84c.087 0 .13-.044.13-.13Z"/>
  <path fill="color(display-p3 0 .3216 .8)" d="M334.278 414.151c1.505.729 3.172 1.514 4.046 1.91a.616.616 0 0 1 .308.81l-1.91 4.321a.623.623 0 0 1-.809.291l-3.982-1.893c-2.889-1.384-4.491-1.7-6.077.922l-.599.996a.626.626 0 0 1-.383.278.612.612 0 0 1-.467-.076l-4.046-2.476a.616.616 0 0 1-.202-.81l.615-1.011c3.488-5.689 8.092-5.859 13.506-3.262Zm4.475-6.554c.203-.324.429-.704.615-1.012a.614.614 0 0 0-.202-.809l-4.046-2.468a.61.61 0 0 0-.688-.002.629.629 0 0 0-.17.171c-.154.268-.364.624-.591.996-1.618 2.622-3.188 2.306-6.077.922l-3.974-1.853a.594.594 0 0 0-.467-.019.61.61 0 0 0-.342.319l-1.966 4.337a.63.63 0 0 0 .307.809c.809.397 2.517 1.182 4.046 1.91 5.43 2.63 10.035 2.444 13.555-3.269v-.032Zm-74.043 70.935a2 2 0 0 0 0 2.829l12.728 12.728a2 2 0 1 0 2.828-2.829l-11.314-11.313 11.314-11.314a2 2 0 0 0-2.828-2.829l-12.728 12.728Zm30.672 3.415a2 2 0 0 0 0-4v4Zm-29.258-2v2h29.258v-4h-29.258v2Z"/>
  <path fill="color(display-p3 .9882 .6392 .149)" d="M278.118 497.074a2 2 0 0 0 0-2.828l-12.728-12.728a2 2 0 1 0-2.828 2.828l11.314 11.314-11.314 11.314a2 2 0 1 0 2.828 2.828l12.728-12.728Zm-35.114-3.414a2 2 0 1 0 0 4v-4Zm33.7 2v-2h-33.7v4h33.7v-2Z"/>
  <defs>
    <filter id="a" width="286.647" height="557.017" x="264.862" y=".499" color-interpolation-filters="sRGB" filterUnits="userSpaceOnUse">
      <feFlood flood-opacity="0" result="BackgroundImageFix"/>
      <feColorMatrix in="SourceAlpha" result="hardAlpha" values="0 0 0 0 0 0 0 0 0 0 0 0 0 0 0 0 0 0 127 0"/>
      <feOffset dx="2"/>
      <feGaussianBlur stdDeviation="4"/>
      <feComposite in2="hardAlpha" operator="out"/>
      <feColorMatrix values="0 0 0 0 0 0 0 0 0 0 0 0 0 0 0 0 0 0 0.48 0"/>
      <feBlend in2="BackgroundImageFix" result="effect1_dropShadow_0_1"/>
      <feBlend in="SourceGraphic" in2="effect1_dropShadow_0_1" result="shape"/>
    </filter>
    <filter id="c" width="272.444" height="540.959" x="-1.583" y="8.494" color-interpolation-filters="sRGB" filterUnits="userSpaceOnUse">
      <feFlood flood-opacity="0" result="BackgroundImageFix"/>
      <feBlend in="SourceGraphic" in2="BackgroundImageFix" result="shape"/>
      <feColorMatrix in="SourceAlpha" result="hardAlpha" values="0 0 0 0 0 0 0 0 0 0 0 0 0 0 0 0 0 0 127 0"/>
      <feOffset dx="-2"/>
      <feGaussianBlur stdDeviation="12"/>
      <feComposite in2="hardAlpha" k2="-1" k3="1" operator="arithmetic"/>
      <feColorMatrix values="0 0 0 0 0 0 0 0 0 0 0 0 0 0 0 0 0 0 0.125 0"/>
      <feBlend in2="shape" result="effect1_innerShadow_0_1"/>
    </filter>
    <radialGradient id="d" cx="0" cy="0" r="1" gradientTransform="rotate(-140.8 218.09 99.12) scale(276.951 326.798)" gradientUnits="userSpaceOnUse">
      <stop stop-color="color(display-p3 .1534 .2338 .2204)"/>
      <stop offset="1" stop-color="color(display-p3 .0844 .0698 .1572)"/>
    </radialGradient>
    <linearGradient id="b" x1="278.147" x2="287.816" y1="150.345" y2="617.353" gradientUnits="userSpaceOnUse">
      <stop stop-color="color(display-p3 .89 .9413 1)"/>
      <stop offset="1" stop-color="color(display-p3 .517 .5439 .6782)"/>
    </linearGradient>
  </defs>
</svg>